<?xml version="1.0" encoding="utf-8" standalone="no"?>
<!DOCTYPE svg PUBLIC "-//W3C//DTD SVG 1.1//EN"
  "http://www.w3.org/Graphics/SVG/1.1/DTD/svg11.dtd">
<!-- Created with matplotlib (https://matplotlib.org/) -->
<svg height="72pt" version="1.1" viewBox="0 0 72 72" width="72pt" xmlns="http://www.w3.org/2000/svg" xmlns:xlink="http://www.w3.org/1999/xlink">
 <defs>
  <style type="text/css">
*{stroke-linecap:butt;stroke-linejoin:round;}
  </style>
 </defs>
 <g id="figure_1">
  <g id="patch_1">
   <path d="M 0 72 
L 72 72 
L 72 0 
L 0 0 
z
" style="fill:none;"/>
  </g>
  <g id="axes_1">
   <g id="line2d_1">
    <path clip-path="url(#pea4fd773e2)" d="M 3.272727 34.869788 
L 5.11044 35.840476 
L 6.708452 36.585684 
L 7.715199 36.818489 
L 8.594105 36.798364 
L 9.441051 36.555805 
L 10.351918 36.05312 
L 11.438565 35.181559 
L 14.538707 32.526636 
L 15.305753 32.251361 
L 15.976918 32.242904 
L 16.632102 32.464321 
L 17.319247 32.941851 
L 18.118253 33.786725 
L 19.15696 35.243008 
L 21.841619 39.177834 
L 22.544744 39.757634 
L 23.120028 39.960942 
L 23.615412 39.90996 
L 24.110795 39.634544 
L 24.670099 39.049108 
L 25.325284 38.008905 
L 26.14027 36.257208 
L 27.418679 32.888578 
L 28.888849 29.177694 
L 29.623935 27.877153 
L 30.167259 27.312997 
L 30.598722 27.155482 
L 30.982244 27.253978 
L 31.381747 27.608748 
L 31.84517 28.35028 
L 32.404474 29.709879 
L 33.091619 32.01765 
L 34.018466 35.988239 
L 36.383523 46.485447 
L 36.990767 48.103267 
L 37.42223 48.722235 
L 37.741832 48.846326 
L 38.013494 48.70617 
L 38.317116 48.265356 
L 38.700639 47.259787 
L 39.164062 45.359452 
L 39.739347 41.978091 
L 40.474432 36.210129 
L 41.800781 23.600473 
L 42.775568 15.366228 
L 43.334872 12.281826 
L 43.718395 11.206752 
L 43.958097 11.041547 
L 44.133878 11.189356 
L 44.357599 11.723331 
L 44.661222 13.091582 
L 45.060724 16.047993 
L 45.572088 21.712287 
L 46.243253 31.937439 
L 48.464489 68.271092 
L 48.832031 70.476711 
L 49.039773 70.796202 
L 49.151634 70.669738 
L 49.327415 70.034613 
L 49.583097 68.142478 
L 49.934659 63.688407 
L 50.414062 54.478895 
L 51.197088 34.300011 
L 52.187855 9.994247 
L 52.651278 3.413108 
L 52.954901 1.640164 
L 53.066761 1.535647 
L 53.098722 1.560686 
L 53.226562 1.903854 
L 53.434304 3.275552 
L 53.737926 6.977137 
L 54.201349 15.798978 
L 55.895241 51.206179 
L 56.230824 53.526312 
L 56.406605 53.797126 
L 56.422585 53.789961 
L 56.534446 53.595137 
L 56.726207 52.69577 
L 57.02983 49.971771 
L 57.525213 43.068991 
L 58.707741 26.033912 
L 59.091264 23.505375 
L 59.330966 23.032373 
L 59.458807 23.128339 
L 59.634588 23.637265 
L 59.90625 25.2027 
L 60.337713 29.197776 
L 61.839844 44.315691 
L 62.175426 45.542716 
L 62.383168 45.724239 
L 62.542969 45.572855 
L 62.76669 44.968091 
L 63.118253 43.236201 
L 63.741477 38.755694 
L 64.636364 32.669725 
L 65.067827 31.057322 
L 65.371449 30.603555 
L 65.57919 30.606896 
L 65.802912 30.866097 
L 66.138494 31.659588 
L 66.761719 33.84686 
L 67.528764 36.281657 
L 67.928267 36.914553 
L 68.215909 37.02041 
L 68.471591 36.874248 
L 68.727273 36.527629 
L 68.727273 36.527629 
" style="fill:none;stroke:#ffffff;stroke-linecap:round;stroke-width:2;"/>
   </g>
  </g>
 </g>
 <defs>
  <clipPath id="pea4fd773e2">
   <rect height="72" width="72" x="0" y="0"/>
  </clipPath>
 </defs>
</svg>
